<svg width="24" height="24" viewBox="0 0 24 24" fill="none" xmlns="http://www.w3.org/2000/svg">
<path d="M12 2C6.201 2 1.5 5.8055 1.5 10.5C1.5 13.495 3.418 16.1225 6.309 17.6365L5.1995 21.335C5.132 21.5595 5.3825 21.745 5.5775 21.615L9.7885 18.8075C10.502 18.9315 11.241 19 12 19C17.799 19 22.5 15.1945 22.5 10.5C22.5 5.8055 17.799 2 12 2Z" fill="#263238"/>
<path d="M7.5 9H4.5C4.224 9 4 8.776 4 8.5C4 8.224 4.224 8 4.5 8H7.5C7.776 8 8 8.224 8 8.5C8 8.776 7.776 9 7.5 9Z" fill="#FFCA28"/>
<path d="M12.5 13V8.5C12.5 8.224 12.724 8 13 8C13.276 8 13.5 8.224 13.5 8.5V13C13.5 13.276 13.276 13.5 13 13.5C12.724 13.5 12.5 13.276 12.5 13Z" fill="#FFCA28"/>
<path d="M16 13V8.5C16 8.224 16.224 8 16.5 8C16.776 8 17 8.224 17 8.5V13C17 13.276 16.776 13.5 16.5 13.5C16.224 13.5 16 13.276 16 13Z" fill="#FFCA28"/>
<path d="M16.3105 10.6035L18.7675 8.1465C18.963 7.951 19.2795 7.951 19.4745 8.1465C19.67 8.342 19.67 8.6585 19.4745 8.8535L17.0175 11.3105C16.822 11.506 16.5055 11.506 16.3105 11.3105C16.1155 11.1155 16.1155 10.799 16.3105 10.6035Z" fill="#FFCA28"/>
<path d="M18.039 10.3325L19.893 12.691C20.0635 12.908 20.026 13.2225 19.809 13.393C19.592 13.5635 19.2775 13.526 19.107 13.309L17.253 10.9505C17.0825 10.7335 17.12 10.419 17.337 10.2485C17.554 10.078 17.8685 10.1155 18.039 10.3325Z" fill="#FFCA28"/>
<path d="M15 13.5H13C12.724 13.5 12.5 13.276 12.5 13C12.5 12.724 12.724 12.5 13 12.5H15C15.276 12.5 15.5 12.724 15.5 13C15.5 13.276 15.276 13.5 15 13.5Z" fill="#FFCA28"/>
<path d="M11.9665 12.821L10.356 8.321C10.2835 8.1315 10.1075 8.0155 9.917 8.0065C9.8615 8.004 9.647 8.005 9.5965 8.006C9.4005 8.0095 9.218 8.1265 9.1435 8.321L7.533 12.821C7.434 13.079 7.563 13.368 7.821 13.467C8.079 13.566 8.368 13.437 8.467 13.179L8.71 12.5H10.79L11.033 13.179C11.132 13.437 11.421 13.5655 11.679 13.467C11.937 13.3685 12.0655 13.0785 11.9665 12.821ZM9.068 11.5L9.75 9.594L10.432 11.5H9.068Z" fill="#FFCA28"/>
<path d="M6.5 9H5.5V13C5.5 13.276 5.724 13.5 6 13.5C6.276 13.5 6.5 13.276 6.5 13V9Z" fill="#FFCA28"/>
</svg>
